<?xml version="1.0" encoding="UTF-8"?><svg id="Isolation_Mode" xmlns="http://www.w3.org/2000/svg" viewBox="0 0 405 405"><defs><style>.cls-1{fill:#dca958;fill-rule:evenodd;stroke:#424142;stroke-miterlimit:10;}</style></defs><path class="cls-1" d="M174.11,254.57c3.12-2.85,6.1-5.83,8.95-8.95,1.84-1.57,3.54-3.28,5.11-5.12,1.2-.93,2.27-2,3.2-3.2,1.67-3.02,4.52-4.86,5.12-8.95-8.39,2.48-20.92.82-24.3,8.31-1.86,2.19-4.18,3.92-6.07,6.07-4.42,3.35-8.54,7.02-13.11,10.23,2.18,2.83,3.94,6.07,4.48,10.55,8.21,1.49,11.79,7.61,18.23,10.87.67.95,1.68-.42,2.88,0,1.5-.21,3.83.42,4.8-.32,1.9.08,3.59-.03,4.79-.64.87-3.61-.26-7.5-4.48-7.03-1.6-.74-4.58-.11-6.71-.32-3.72-.96-6.46-7.2-3.84-10.55.46-.18.78-.5.96-.96Z"/><path class="cls-1" d="M272.59,228.03c.36,4.96,2.2,8.45,6.39,9.59,1.43-11.25,4.3-21.06,5.43-32.61-.15-1.13-.81-1.75-1.28-2.56-.46.17-1.65-.37-1.6.32-3.48,2.28-7.74,3.77-9.59,7.67-.73.55-.12,2.44-.32,3.52.21,1.82-.42,4.47.32,5.76.21,1.5-.42,3.83.32,4.8.2,1.08-.41,2.97.32,3.52Z"/><path class="cls-1" d="M53.9,265.12c1.67,2.25,4.43,3.42,6.08,4.8h.64c1.49,1.16,5.41.67,7.03,0,5.67-.61,10.99-1.59,16.63-2.24,1.9.19,2.85-.56,4.8-.32,3.63.52,7.12,1.19,10.87,1.6,0,.31.39.25.64.32.66.53,3.5.53,4.16,0,.37.05.57-.07.64-.32,3.63-1.06,5.89-3.49,8.63-5.44.26-.06.32-.32.64-.32,1.52-1.25,2.9-2.64,4.16-4.16.11-.42.56-.5.64-.96,1.9-2.25,4.39-6.1,5.43-9.91,1.29-4.7.29-11.5,4.16-13.43,1.2-.93,2.27-2,3.2-3.2.63-1.18,1.64-1.99,1.6-3.84.77-1.6.34-2.84.32-4.8-.68-4.01-2.12-7.26-2.24-11.83.2-1.08-.41-2.97.32-3.52,2.11,7.61,7.3,15.12,5.44,24.62-.93,1.94-2.54,3.21-3.84,4.8-2.49,3.05-2.64,8.44-3.2,13.43-.69-.05-.15,1.13-.32,1.6-.53,1.29-.53,4.79,0,6.08.18.56-.39,1.88.32,1.92-.14,1.85.13,3.28.32,4.8,4.78-.76,9.15-1.94,14.39-2.24h3.84c1.44-.12,2.58,1.26,3.52.64-.49-4.41-3.46-6.34-4.8-9.91,4.55-6.28,13.06-11.65,19.5-17.27,2.05-1.78,3.97-3.7,5.75-5.75,3.56-4.75,6.33-10.3,8.63-16.31.74,1.92.11,5.22.32,7.67v1.92c.16,1.01-.58,1.13-.32,2.24-.59.05-.2,1.08-.64,1.28.55.53,3.29.53,3.84,0,18.68-3.06,33.86-9.62,50.52-14.71,1.9-.24.56-3.71.96-5.44v-2.24c.73-.44.12-2.22.32-3.2v-1.92c.53-.55.53-3.28,0-3.84-.17-.46.37-1.65-.32-1.6v-.32c5.75,7.19,6.57,20.49,8.63,31.97,2.13,11.9,5.59,22.14,13.11,28.14,6.45-.77,11.62,5.6,17.9,4.8,4.43-.57,7.22-4.56,12.15-5.12-1.21-5.71-2.73-11.13-8.95-11.83-.04-.71-1.36-.14-1.92-.32-1.77-.68-4.92.02-6.07-1.28-5.07-5.8-5.42-16.32-6.07-26.54v-5.76c1.62-.94,2.88-2.23,3.52-4.16,5.83-.47,6.56-5.31,12.47-6.07,1.84-1.57,3.54-3.28,5.12-5.12,7.82-11.26,4.64-33.51,9.27-47.96,4.59.2,6.15,6.14,11.19,5.12,1.86-.38,2.54-3.32,4.16-4.8,1.56-1.43,5.5-2.07,6.72-3.84,1.61-2.35.55-6.05.32-8.31v-5.12c-.43-1.49.71-1.42,1.28-1.92.55.01.83-.24.96-.64.53-.87.53-3.93,0-4.8-.57-6.76-6.91-8.06-6.07-15.35-4.06.31-5.5-.58-8.31-2.56-1.33-.16-.5,1.84-1.6,1.92,1.07-6.01-4.49-8.91-8.31-5.43-.82.35-1.54.81-1.92,1.6-.56.29-.99.72-1.28,1.28-.31,0-.25-.39-.32-.64v-1.28c-8.08,1.3-14.13,4.63-19.82,8.31-2.8,2.53-5.46,5.2-7.99,7.99-.42.11-.5.56-.96.64v.32c-1.9,1.51-4.56,2.27-7.67,2.56-.47.17-1.65-.37-1.6.32-2.14.2-3.08,1.61-4.48,2.56h-.32c-3.33,3.06-6.53,6.26-9.59,9.59-.77.5-1.41,1.14-1.92,1.92-23.11,18.56-59.07,24.27-87.6,37.41-1.24.35-2.31.88-3.2,1.6-2.34,1.28-4.61,2.64-7.03,3.84-1.38,1.07-2.6,2.3-3.52,3.84-7.44,11.96-12.94,25.85-18.86,39.33-1.03,1.53-1.88,3.23-2.56,5.12-2.46,4.9-5.84,8.87-8.63,13.43-.46.18-.78.5-.96.96-1.63,1.36-3.12,2.85-4.48,4.48-.67.4-1.2.93-1.6,1.6-4.68,3.21-9.6,6.17-16.63,7.03h-5.12c-4.3-.6-8.16-1.64-10.23-4.48,1.76-.58,3.74-.95,5.11-1.92-.48-10.29-3.95-17.57-12.79-19.5,0-.31-.39-.25-.64-.32-.66-.53-3.5-.53-4.16,0-.45-.03-.91-.05-.96.32-2.85.14-4.19,1.78-6.4,2.56-1.12.9-2.26,1.79-2.88,3.2-2.23,6.17,2.76,8.35,4.48,13.11,2.44,6.75,1.02,14.83,4.48,19.5Z"/><path class="cls-1" d="M344.37,272.04l-17.36-2.32c-7.53-5.11-15.87-9.42-22.76-15.17-1.47.45-3,.83-4.8.96-1.18.2-3.19-.41-3.84.32-.46.18-1.65-.37-1.6.32-5.94-.24-13.12,6.35-18.54,6.71-5.43.36-8.98-4.02-14.71-4.8-3.63,1.95-4.07,5.79-7.67,7.67-3.81,1.99-9.38,2.74-14.07,4.16-5.53,1.67-11.51,3.3-15.35,5.75-.26.06-.32.32-.64.32-1.31,1.04-2.48,2.21-3.52,3.52-2.87,4.81-9.64.97-14.71.64-.24-.72-1.79-.13-2.56-.32.05-.69-1.13-.14-1.6-.32-.55-.53-3.29-.53-3.84,0h-1.92c-1.08.2-2.97-.41-3.52.32-.46.18-1.65-.37-1.6.32-3.43-.13-6.1.51-9.27.64-.97.2-2.75-.41-3.2.32-.53,0-1.07,0-1.6,0-7.94-5.17-14.07-12.15-25.26-14.07.05-.69-1.13-.15-1.6-.32-.45-.53-3.07-.53-3.52,0-.87.2-2.54-.41-2.88.32-12.27,1.06-21.33,5.31-32.93,7.03h-2.88c-14.91-4.26-31.45-1.99-46.36.96-4.79,9.07-7.21,20.5-13.43,28.14,2.72.05,5.71-2.38,7.35-4.48,1.39-1.17,3.14-1.98,3.84-3.84,2.61-3.25,3.6-8.12,5.75-11.83,5.79-1.46,12.35-2.15,18.54-3.2h6.07c3.65.29,7.26.63,10.23,1.6-.22,3.3-1.48,5.55-1.92,8.63-1.87,1.86-4.83,2.63-6.39,4.8,4.96-1.28,14.22-.88,16.31-5.44.53-1.16-.01-3.8.96-5.44,1.69-2.85,13.37-5.86,17.26-7.03,7.45-2.24,14.76-3.67,20.78-3.52,6.07.15,10.15,6.57,11.83,10.87.21,3.41-.42,7.67.32,10.55,0,.31.39.25.64.32,7.41,5.17,18.66,6.5,26.86,10.87.07.46.95.11.96.64.37-.05.27-.58.32-.96-1.36-1.63-2.85-3.12-4.48-4.48-3.88-1.55-7.69-3.18-11.51-4.8-1.1-.82-2.38-1.46-3.84-1.92-.9-.91-2.53-1.1-3.2-2.24v-10.23h.64c2.47,1.9,4.15,4.59,7.35,5.75,0,.31.39.25.64.32,4.69.53,11.62.53,16.31,0,3.33-.51,6.51-1.16,9.91-1.6h4.16c2.9.78,5.18,1.86,7.99,2.88,2.11.76,5.85,2.95,8.31,2.56,3.28-.53,8.25-10.41,11.83-11.83,8.43-3.34,19.55-4.05,24.94-7.99,2.13-1.17,3.45-3.15,5.12-4.8.37.05.57-.07.64-.32h.64v5.43c-2.31,4.31-7.79,3.99-10.55,7.99-3.03,4.4-2.01,11.11-4.8,16.63-6.4,3.4-12.73,6.88-18.86,10.55,7.85-.89,15.32-4.93,22.38-7.67,1.99-5.47,4.25-10.67,6.07-16.31,5.18-4.2,11.51-7.24,13.11-15.03,10.5,4.55,16.14-6.49,27.82-5.75h3.52c2.57.4,3.38,3.16,6.07,4.16l26.77,15.27s52.85,12.54,10.79-10.26ZM323.19,269.21l-1.52-.2c.51.06,1.02.13,1.52.2Z"/></svg>
