<?xml version="1.0" encoding="UTF-8"?><svg id="katman_1" xmlns="http://www.w3.org/2000/svg" viewBox="0 0 666 666"><defs><style>.cls-1{fill:#dca958;stroke-width:0px;}</style></defs><g id="og"><path class="cls-1" d="M285.33,429.4c-50.58,50.58-131.63,52.11-184.05,4.61l42.6-42.6,75.35-75.34,14.17,14.17-72.02,72.02c26.91,11.79,59.44,6.68,81.46-15.35,28.69-28.69,28.69-75.2,0-103.89-28.69-28.69-75.2-28.69-103.89,0-25.46,25.46-28.33,64.97-8.59,93.59l-42.89,42.89c-42.99-52.47-40-130.01,8.98-178.98,52.16-52.16,136.73-52.16,188.89,0,52.16,52.16,52.16,136.73,0,188.89Z"/><path class="cls-1" d="M475.28,464.61c71.53,0,129.92-56.23,133.4-126.89h-166.79v20.04h101.84c-10.69,27.36-37.3,46.75-68.45,46.75-40.57,0-73.46-32.89-73.46-73.46s32.89-73.46,73.46-73.46c36.01,0,65.97,25.91,72.25,60.11h60.66c-6.7-67.5-63.65-120.21-132.91-120.21-73.77,0-133.57,59.8-133.57,133.57s59.8,133.57,133.57,133.57Z"/></g></svg>