<?xml version="1.0" encoding="UTF-8"?><svg id="katman_1" xmlns="http://www.w3.org/2000/svg" viewBox="0 0 666 666"><defs><style>.cls-1{fill:#dcaa57;stroke-width:0px;}</style></defs><path class="cls-1" d="M353.5,182.78c-16.87,0-33.74.05-50.61,0-3.02-.01-5.35.32-5.02,4.21.14,1.58-.08,3.19-.08,4.79-.01,95.03.01,190.05-.13,285.08,0,4.73,1.55,6.19,6.08,6.15,19-.14,38,.02,57-.06,6.95-.03,6.98-.19,6.98-7.22.01-47.6,0-95.2,0-142.8,0-45.29.01-90.59,0-135.88q0-14.26-14.23-14.26Z"/><path class="cls-1" d="M550.9,80.48c0-3.16,0-6.32,0-9.68H115v524.34h11.85c137.31,0,274.61,0,411.92,0,2.13,0,4.29-.27,6.39-.02,4.85.57,5.85-1.68,5.85-6.16-.1-169.49-.1-338.98-.1-508.47ZM475.48,524.89c-1.59-.13-3.19.03-4.79.03-92,0-183.99.02-275.99-.03-11.65,0-9.9.83-9.91-10.04-.07-60.57-.03-121.15-.03-181.72.01-60.22,0-120.44.03-180.66,0-13.96.56-11.52,11.66-11.53,90.93-.08,181.86-.05,272.79-.04,1.78,0,3.56.17,5.33.01,4.32-.39,6.24,1.48,6.08,5.82-.12,3.19.09,6.39.09,9.59,0,119.55,0,239.1,0,358.65,0,1.6-.17,3.22.01,4.79.48,4.09-1.48,5.44-5.27,5.13Z"/></svg>