<?xml version="1.0" encoding="UTF-8"?><svg id="katman_1" xmlns="http://www.w3.org/2000/svg" viewBox="0 0 666 666"><defs><style>.cls-1{fill:#dca958;stroke-width:0px;}</style></defs><path class="cls-1" d="m489.78,425.85c-12.53,21.7-28.94,40.3-48.79,55.3-19.16,14.48-40.68,24.98-63.96,31.22-23.28,6.24-47.17,7.9-71,4.95-24.69-3.06-48.21-10.97-69.91-23.5-21.7-12.53-40.3-28.94-55.3-48.79-14.48-19.16-24.98-40.68-31.22-63.96-6.24-23.28-7.9-47.17-4.95-71,3.06-24.69,10.97-48.21,23.5-69.91,12.53-21.7,28.94-40.31,48.79-55.3,19.16-14.48,40.68-24.98,63.96-31.22,23.28-6.24,47.17-7.9,71-4.94,24.69,3.06,48.21,10.97,69.91,23.5,17.22,9.94,32.6,22.44,45.73,37.15,12.7,14.23,23.11,30.31,30.92,47.79,4.15,9.29,3.28,19.54-1.44,27.73-3.1,5.37-7.87,9.85-13.96,12.58-15.39,6.87-33.43-.03-40.3-15.41-10.75-24.06-28.54-43.76-51.45-56.99-59.54-34.37-135.94-13.9-170.31,45.64-34.37,59.54-13.9,135.94,45.63,170.31,59.53,34.37,135.94,13.9,170.31-45.63,8.43-14.59,27.08-19.59,41.68-11.17,14.59,8.43,19.59,27.08,11.17,41.68h0Z"/><path class="cls-1" d="m617.09,499.35c-22.45,38.88-51.86,72.22-87.41,99.08-17.09,12.91-35.53,24.22-54.83,33.61-19.11,9.3-39.22,16.81-59.78,22.32-20.55,5.51-41.73,9.06-62.93,10.56-21.41,1.51-43.04.94-64.29-1.69-44.22-5.49-86.35-19.65-125.24-42.1-33.04-19.08-62.25-43.35-86.81-72.13-23.73-27.82-42.62-59.23-56.13-93.37-6.2-15.67,1.47-33.4,17.14-39.6,15.67-6.2,33.4,1.48,39.6,17.14,22.73,57.43,63.09,104.15,116.71,135.11,129.74,74.9,296.22,30.29,371.13-99.44,74.9-129.74,30.29-296.22-99.44-371.13C335.07,22.81,168.58,67.42,93.68,197.16c-13.48,23.35-23.39,48.37-29.43,74.36-3.82,16.41-20.22,26.62-36.63,22.8-16.41-3.82-26.62-20.22-22.8-36.63,7.41-31.85,19.53-62.48,36.02-91.05,22.45-38.88,51.86-72.22,87.41-99.08,17.09-12.91,35.53-24.22,54.83-33.61,19.11-9.3,39.22-16.81,59.78-22.32,20.55-5.51,41.73-9.06,62.93-10.56,21.41-1.51,43.04-.95,64.29,1.69,44.22,5.49,86.35,19.65,125.24,42.1,38.89,22.45,72.22,51.86,99.08,87.41,12.91,17.09,24.22,35.53,33.61,54.83,9.3,19.11,16.81,39.22,22.32,59.78,5.51,20.55,9.06,41.73,10.56,62.93,1.51,21.41.95,43.04-1.69,64.29-5.49,44.22-19.65,86.35-42.1,125.24Z"/><path class="cls-1" d="m328.97,460.28c16.85,0,30.51,13.66,30.51,30.51v139.9c0,16.85-13.66,30.51-30.51,30.51s-30.51-13.66-30.51-30.51v-139.9c0-16.85,13.66-30.51,30.51-30.51Z"/><circle class="cls-1" cx="332.01" cy="328.73" r="59.8"/></svg>