<?xml version="1.0" encoding="UTF-8"?><svg id="katman_1" xmlns="http://www.w3.org/2000/svg" xmlns:xlink="http://www.w3.org/1999/xlink" viewBox="0 0 666 666"><defs><style>.cls-1{clip-path:url(#clippath);}.cls-2,.cls-3,.cls-4{fill:#dca958;}.cls-3{fill-rule:evenodd;}.cls-3,.cls-4{stroke-width:0px;}</style><clipPath id="clippath"><path class="cls-4" d="m414.22,484.02c21.34-11.25,40.24-26.33,55.85-44.39l-6.24-256.27c-16.47-17.33-36.08-31.53-57.94-41.76l3.86,158.62-172.65,4.2-3.83-157.48c-21.22,11.61-39.95,27.08-55.38,45.45l3.45,141.88c.09,3.9.93,7.56,2.45,11,1.52,3.44,3.59,6.39,6.19,8.89,2.58,2.46,5.66,4.42,9.15,5.83,3.51,1.45,7.3,2.13,11.36,2.04l200.65-4.88,3.09,126.87Z"/></clipPath></defs><path class="cls-3" d="m632.43,250.29c14.01-9.32,23.26-25.24,23.26-43.36,0-28.75-23.32-52.07-52.04-52.07-2.59,0-5.12.25-7.61.62v-.07h-.87v-.87h-.62c-.08-.14-.16-.28-.24-.42v-1.31h-.76c-.04-.06-.07-.13-.11-.19v-1.54h-.87v-.87h-.57c-.09-.15-.2-.3-.29-.46v-1.28h-.82s-.03-.05-.05-.07v-1.66h-.87v-.87h-.76c-.04-.06-.07-.11-.11-.17v-1.57h-.87v-.87h-.7c-.06-.09-.11-.17-.17-.26v-1.47h-.87v-1.73h-.87v-.87h-.87v-1.73h-.87v-.87h-.87v-1.73h-.87v-.87h-.87v-.87h-.83s-.02-.03-.04-.05v-1.68h-.87v-.87h-.87v-.87h-.7c-.06-.08-.11-.15-.16-.23v-1.5h-.87v-.87h-.83s-.03-.04-.04-.06v-.81h-.58c-.09-.12-.19-.24-.29-.36v-1.37h-.87v-.87h-.87v-.87h-.71c-.05-.07-.1-.13-.16-.2v-1.54h-.87v-.87h-.87v-.87h-.84s-.02-.02-.02-.03v-1.7h-.87v-.87h-.87v-.87h-.87v-1.73h-.87v-.87h-.87v-.87h-.87v-.87h-.87v-.87h-.87v-.87h-.87v-.87h-.82s-.03-.04-.05-.05v-.81h-.71c-.05-.06-.11-.12-.16-.19v-.68h-.59c-.09-.11-.18-.21-.28-.32v-1.42h-.87v-.87h-.87v-.87h-.87v-.87h-.87v-.87h-.87v-.87h-.83s-.02-.02-.03-.03v-.83h-.8s-.05-.05-.07-.07v-.79h-.76s-.07-.08-.11-.11v-.75h-.72c-.05-.05-.1-.1-.15-.15v-.71h-.68l-.19-.19v-1.54h-.87v-.87h-.87v-.87h-.87v-.87h-.87v-.87h-.87v-.87h-.87v-.87h-.87v-.87h-.87v-.87h-.87v-.87h-1.52c-.07-.07-.14-.14-.21-.2v-.66h-.7c-.06-.05-.11-.11-.17-.16v-.71h-.74s-.08-.08-.12-.12v-.75h-.79s-.05-.05-.08-.08v-.79h-.83s-.02-.02-.04-.03v-.83h-.87v-.87h-.87v-.87h-.87v-.87h-.87v-.87h-.87v-.87h-1.35c-.13-.11-.25-.22-.38-.33v-.54h-.62c-.08-.07-.16-.14-.24-.21v-.66h-.76s-.07-.06-.11-.09v-.77h-.87v-.87h-.87v-.87h-.87v-.87h-.87v-.87h-.87v-.87h-.87v-.87h-1.73v-.87h-.87v-.87h-.87v-.87h-1.6s-.09-.07-.13-.1v-.76h-.87v-.87h-.87v-.87h-1.45c-.09-.07-.19-.15-.28-.22v-.64h-.82s-.03-.02-.04-.03v-.83h-.87v-.87h-1.3c-.15-.11-.29-.23-.43-.34v-.53h-.67c-.07-.05-.13-.1-.2-.15v-.71h-.87v-.87h-1.35c-.13-.09-.26-.18-.39-.27v-.59h-.83s-.02-.02-.03-.02v-.84h-.87v-.87h-1.54c-.06-.05-.13-.09-.19-.14v-.73h-.87v-.87h-.87v-.87h-1.73v-.87h-.87v-.87h-.87v-.87h-1.73v-.87h-1.64s-.06-.04-.09-.06v-.81h-.87v-.87h-1.73v-.87h-.87v-.87h-1.73v-.87h-1.48c-.09-.05-.17-.11-.26-.17v-.7h-.87v-.87h-1.58c-.05-.03-.1-.07-.15-.1v-.77h-1.24c-.16-.1-.33-.18-.49-.28v-.59h-.87v-.87h-1.66s-.05-.03-.07-.04v-.83h-1.44c-.1-.06-.2-.11-.3-.17v-.7h-.87v-.87h-1.73v-.87h-1.63s-.07-.04-.1-.06v-.81h-.87v-.87h-1.73v-.87h-1.73v-.87h-1.73v-.87h-1.73v-.87h-1.73v-.87h-1.73v-.87h-1.73s0,0,0,0v-.87h-1.69s-.03-.01-.04-.02v-.84h-1.65s-.06-.03-.08-.04v-.82h-1.73v-.87h-1.93c-.22-.1-.45-.2-.67-.3v-.56h-1.24c-.16-.07-.33-.15-.49-.22v-.65h-1.43c-.1-.05-.2-.09-.3-.14v-.73h-1.61s-.08-.04-.12-.05v-.81h-1.73v-.87h-1.73v-.87h-1.73v-.87h-2.6v-.87h-2.33c-.09-.04-.18-.07-.27-.11v-.76h-1.73v-.87h-2.4c-.07-.03-.14-.05-.2-.08v-.79h-1.99c-.2-.08-.4-.16-.6-.24v-.63h-1.59c-.33-.12-.67-.23-1.01-.36v-.51h-1.51c-.07-.03-.15-.05-.22-.08v-.79h-2.34c-.09-.03-.17-.06-.26-.09v-.78h-2.3c-.1-.03-.2-.07-.3-.1v-.77h-2.26c-.11-.04-.22-.08-.34-.11v-.75h-1.73v-.87h-2.6v-.87h-3.47v-.87h-3.18c-.09-.03-.19-.05-.28-.08v-.79h-2.77c-.23-.06-.46-.13-.7-.2v-.67h-2.35c-.37-.1-.74-.22-1.11-.32v-.55h-2.16c-.43-.11-.87-.19-1.3-.3v-.57h-2.45c-.34-.08-.68-.15-1.02-.23v-.63h-2.6v-.87h-3.47v-.87h-4.33v-.87h-5c-.35-.07-.71-.13-1.06-.19v-.68h-3.79c-.47-.08-.94-.18-1.41-.25v-.61h-3.64c-.8-.12-1.62-.19-2.43-.31v-.56h-4.39c-.27-.03-.54-.07-.81-.1v-.76h-6s-.04,0-.07,0v-.86h-10.41c-.28-.02-.57-.04-.85-.06V.31h-19.77c-.76,0-1.5-.06-2.26-.06s-1.5.05-2.26.06h-19.9v.81c-.24.02-.48.04-.73.06h-10.54v.87h-6.07v.78c-.23.03-.46.06-.69.09h-4.51v.57c-.77.11-1.54.18-2.31.29h-3.76v.64c-.43.07-.86.16-1.29.23h-3.91v.7c-.31.06-.63.11-.94.17h-5.13v.87h-4.33v.87h-2.6v.73c-.2.05-.4.09-.61.14h-2.86v.66c-.3.07-.6.14-.89.21h-2.57v.59c-.39.1-.79.17-1.18.27h-2.28v.59c-.33.09-.66.19-.99.28h-2.47v.7c-.19.05-.38.11-.58.16h-2.89v.82l-.16.05h-3.3v.87h-3.47v.87h-2.6v.87h-1.73v.79c-.07.02-.14.05-.22.07h-2.38v.81c-.06.02-.12.04-.18.06h-2.42v.82s-.1.03-.14.05h-2.46v.83s-.07.02-.11.04h-1.63v.55c-.29.11-.59.21-.89.32h-1.71v.67c-.16.06-.32.13-.49.19h-2.11v.83s-.06.02-.09.03h-1.65v.65c-.18.07-.37.15-.55.22h-2.05v.81s-.1.04-.15.06h-2.45v.87h-2.6v.87h-1.73v.87h-1.73v.87h-1.73v.87s0,0,0,0h-1.73v.78c-.06.03-.12.06-.19.08h-1.55v.7c-.12.06-.25.11-.37.17h-1.36v.61c-.18.09-.37.17-.56.25h-1.17v.53c-.25.12-.5.22-.74.34h-1.86v.87h-1.73v.87h-1.73v.87h-1.73v.87h-1.73v.87h-1.73v.87h-1.73v.87h-1.73v.87h-1.73v.87h-1.73v.87h-.87v.87h-1.73v.87h-1.73v.87h-.87v.76c-.06.04-.12.07-.18.11h-1.55v.87h-.87v.52c-.2.12-.4.23-.6.35h-1.13v.65c-.12.07-.25.14-.38.22h-1.36v.84s-.03.02-.04.02h-.83v.53c-.18.11-.35.23-.52.34h-1.21v.77s-.1.06-.15.09h-1.59v.87h-.87v.7c-.08.05-.17.11-.25.16h-1.48v.87h-1.73v.87h-.87v.87h-1.73v.87h-1.73v.87h-.87v.87h-.87v.87h-1.73v.87h-.87v.87h-.87v.81s-.05.04-.08.06h-1.65v.87h-.87v.87h-.87v.11c-8.45-5.93-18.73-9.44-29.84-9.44-28.77,0-52.07,23.3-52.07,52.06,0,11.44,3.73,21.99,9.99,30.57v.35h-.87v1.65s-.04.05-.06.08h-.81v.87h-.87v.87h-.87v1.73h-.87v.87h-.87v1.73h-.87v1.63s-.05.07-.07.11h-.8v.87h-.87v1.72h0s-.86.01-.86.01v1.34c-.08.13-.17.26-.26.4h-.61v.87h-.87v1.43c-.06.1-.13.2-.19.3h-.67v1.08c-.13.21-.25.44-.38.65h-.49v.85s0,.01-.01.02h-.86v1.48c-.05.08-.09.17-.14.25h-.72v.87h-.87v1.73h-.87v1.66s-.03.05-.04.08h-.82v.87h-.87v1.73h-.87v1.73h-.87v1.69s-.01.03-.02.04h-.84v1.64s-.03.06-.05.09h-.82v1.6s-.05.09-.07.14h-.8v1.55c-.03.06-.06.12-.1.19h-.77v1.5c-.04.08-.08.15-.12.23h-.75v1.45c-.05.09-.1.19-.14.28h-.72v1.41c-.05.11-.11.22-.17.33h-.7v1.36c-.06.13-.13.25-.19.38h-.67v1.42c-.05.1-.09.21-.14.31h-.73v1.6s-.04.09-.06.13h-.81v1.73h-.87v1.73h-.87v1.73h-.87v1.73h-.87v1.73h-.87v2.6h-.87v1.73h-.87v2.6h-.87v2.36l-.1.24h-.77v1.95c-.08.22-.17.43-.26.65h-.61v1.54c-.02.07-.05.13-.08.2h-.79v1.99c-.07.2-.16.4-.23.61h-.63v1.86c-.09.25-.16.5-.25.74h-.61v1.73h-.87v2.6h-.87v2.57s0,.02,0,.02h-.86v2.52s-.02.05-.03.07h-.84v1.73h-.87v3.47h-.87v3.38s-.02.05-.02.08h-.84v2.96c-.05.17-.1.34-.15.51h-.72v2.53c-.08.32-.18.62-.27.94h-.6v2.23c-.1.41-.18.83-.29,1.24h-.58v2.5c-.08.32-.15.65-.22.97h-.64v2.77c-.05.23-.11.46-.16.7h-.7v2.6h-.87v4.33s0,0,0,0h-.87v4.82c-.02.12-.04.25-.07.38h-.8v4.45c-.09.54-.2,1.07-.29,1.61h-.58v3.21c-.1.66-.17,1.33-.27,1.98h-.6v4.71c-.06.45-.12.91-.17,1.36h-.69v5.2h-.87v9.95c-.01.15-.02.3-.03.44h-.83v13h-.87v22.53h.87v13h.85c0,.07,0,.13.02.2v9.33h.82c.01.13.04.27.05.4v5.67h.72c.05.37.09.74.14,1.11v4.95h.63c.09.58.15,1.16.23,1.74v3.46h.62c.08.46.17.91.25,1.37v4.7h.84s.01.09.02.13v5.07h.87v3.47h.83c.01.06.03.12.04.18v3.29h.76c.03.15.07.3.1.45v3.02h.7c.06.24.11.48.17.72v2.75h.64c.08.33.14.66.23.98v2.48h.67c.06.23.13.46.2.69v2.78h.79c.02.09.05.17.07.26v3.21h.87v2.6h.79c.03.09.05.18.08.26v3.2h.87v2.6h.87v2.6h.87v2.6h.87v1.73h.68c.06.18.12.36.18.53v2.07h.7c.06.16.11.32.16.48v2.11h.73c.04.12.1.23.14.35v1.38h.55c.1.27.22.53.32.8v1.79h.71c.05.13.1.26.16.39v2.21h.87v2.6h.87v1.73h.86s0,.02.01.03v2.57h.87v1.73h.87v1.73h.85s.01.02.02.04v1.7h.77c.03.07.06.14.1.21v1.52h.69l.18.39v1.34h.61c.09.19.17.38.26.56v2.04h.87v1.73h.84s.01.03.02.05v1.69h.81s.04.08.06.11v1.62h.83s.02.04.03.07v1.67h.86s0,.01,0,.02v1.72h.87v1.73h.87v1.73h.87v1.73h.87v1.73h.87v1.73h.87v1.73h.87v.87h.84s.02.03.02.04v1.69h.87v1.73h.87v.87h.74c.04.07.08.14.12.21v1.52h.87v1.73h.87v.87h.64c.08.13.15.26.22.39v1.35h.84s.02.02.02.04v.83h.53c.11.17.22.34.33.52v1.22h.78s.06.09.08.13v1.6h.87v.87h.72c.05.07.1.15.14.22v1.51h.87v1.73h.87v.87h.87v1.73h.87v.87h.87v1.73h.87v.87h.87v.87h.75c.04.05.08.1.11.16v1.58h.87v.87h.87v.87h.63c.08.11.16.22.24.33v1.4h.87v.87h.75c.04.05.08.11.12.16v.7h.5c.12.17.24.34.37.51v1.22h.87v.87h.71c.05.07.1.13.16.2v.67h.53c.11.15.23.29.34.43v1.3h.87v.87h.84s.02.02.02.03v.84h.66c.07.09.14.17.21.26v1.47h.87v.87h.87v.87h.79s.05.06.07.09v1.64h.87v.87h.87v.87h.87v.87h.86s0,0,0,0v1.73h.87v.87h.87v.87h.87v.87h.87v.87h.87v.87h.87v.87h.82s.03.04.05.05v.81h.7c.05.06.11.12.16.19v.68h.59c.09.1.18.21.27.32v.55h.48c.13.14.26.29.39.44v.43h.41c.15.16.31.31.46.48v1.26h.87v.87h.87v.87h.87v.87h.87v.87h.87v.87h.87v.87h.87v.87h.87v.87h.87v.87h.86s0,0,0,0v1.72h1.73v.87h.87v.87h.87v.87h.87v.87h.87v.87h.87v.87h.87v.87h.87v.87h.87v.87h.87v.87h1.32c.14.13.27.27.42.4v.47h.51c.12.11.24.2.36.31v.56h.64c.07.07.15.13.22.19v.67h.78s.06.05.09.08v.79h.87v.87h.87v.87h.87v.87h.87v.87h.87v.87h1.6s.09.08.14.12v.75h.87v.87h.87v.87h.87v.87h.87v.87h.87v.87h1.73v.87h.87v.87h.87v.87h1.68s.04.03.05.04v.82h.87v.87h.87v.87h1.53c.07.05.14.11.21.16v.71h.87v.87h1.14c.19.14.4.27.59.42v.45h.63c.08.06.16.11.23.17v.7h.87v.87h1.34c.13.09.26.18.39.28v.59h.83s.03.02.04.03v.84h.87v.87h1.54c.07.05.13.09.2.14v.73h.87v.87h.87v.87h1.73s0,0,0,0v.87h.87v.87h1.71s.02.01.03.02v.85h.87v.87h1.73v.87h1.43c.1.06.2.13.3.19v.68h.87v.87h1.54c.06.04.13.08.19.12v.74h.87v.87h1.65s.05.04.08.05v.81h1.27c.16.1.31.2.46.3v.57h.87v.87h1.63s.07.04.11.06v.81h1.4c.11.06.22.13.33.19v.68h.87v.87h1.73v.87h1.6s.09.05.14.08v.79h.87v.87h1.73v.87h1.73v.87h1.73s0,0,0,0v.87h1.69s.03.01.04.02v.85h1.65s.05.03.08.04v.83h1.61s.08.04.12.06v.81h1.58c.05.03.1.05.16.08v.79h1.54c.07.03.13.07.2.1v.77h1.5c.08.04.16.08.24.12v.75h1.46c.09.04.18.09.27.13v.73h1.62s.07.03.11.05v.82h1.73v.87h1.73v.87h1.73v.87h2.37c.08.03.16.07.23.11v.76h1.68s.03.01.05.02v.84h1.73v.87h1.73v.87h2.6v.87h2.31c.1.04.19.08.29.11v.75h1.73v.87h2.38c.07.03.15.06.22.09v.78h1.98c.21.08.41.17.62.25v.62h1.65c.31.11.64.21.95.32v.54h1.61s.08.03.12.04v.83h2.44c.05.02.11.04.16.05v.81h2.4c.07.02.13.04.2.07v.8h2.37c.08.03.15.05.23.08v.79h1.73v.87h2.68c-.02.55-.08,1.09-.08,1.65,0,28.8,23.3,52.07,52.04,52.07,24.56,0,45.08-16.98,50.58-39.86h7.43v-.76c.46-.03.91-.08,1.37-.1h11.63v-.87h6.93v-.83c.09-.01.18-.02.26-.03h4.94v-.63c.63-.09,1.26-.15,1.88-.24h4.18v-.59c.51-.08,1.01-.19,1.52-.27h3.68v-.66c.39-.07.78-.14,1.17-.21h4.89v-.87h4.33v-.85s.04,0,.06-.01h3.41v-.79c.11-.03.23-.05.34-.08h3.12v-.72c.21-.05.42-.1.63-.15h2.83v-.65c.31-.07.61-.14.92-.21h2.55v-.59c.32-.08.64-.19.96-.27h2.5v-.71c.18-.05.36-.11.55-.16h2.92v-.83s.09-.03.13-.04h3.33v-.87h3.47v-.87h2.6v-.87h2.6v-.87h1.73v-.76c.11-.04.21-.07.32-.11h2.28v-.77c.09-.03.18-.06.28-.09h2.32v-.79c.08-.03.16-.05.24-.08h2.36v-.8c.07-.02.14-.04.2-.07h1.53v-.57c.25-.09.49-.2.74-.29h1.86v-.73c.11-.04.23-.09.34-.13h2.26v-.87h1.73v-.71c.14-.05.27-.11.41-.16h2.19v-.86s0,0,0,0h2.59v-.87h1.73v-.87h2.6v-.87h1.73v-.87h1.73v-.87h1.73v-.87h1.73v-.85s.03-.01.04-.02h1.69v-.76c.07-.04.15-.07.22-.1h1.51v-.68c.13-.06.26-.12.39-.19h1.34v-.69c.12-.06.23-.12.35-.18h1.38v-.71c.1-.05.21-.11.31-.16h1.42v-.73c.09-.05.18-.09.27-.14h1.46v-.75c.08-.04.16-.08.23-.12h1.5v-.77c.06-.03.13-.07.19-.1h1.54v-.79c.05-.03.1-.05.15-.08h2.45v-.87h1.73v-.87h.87v-.87h1.73v-.87h.87v-.72c.08-.05.17-.1.25-.14h1.48v-.85s.02,0,.02-.01h1.71v-.87h.87v-.61c.15-.09.3-.17.44-.25h1.29v-.74c.07-.04.15-.08.22-.13h1.51v-.87h.87v-.5c.19-.12.38-.25.57-.37h1.16v-.74c.07-.04.13-.08.19-.12h1.54v-.87h.87v-.67c.1-.06.2-.13.3-.19h1.43v-.87h1.73v-.87h.87v-.85s.02-.01.03-.02h1.7v-.87h1.73v-.87h.87v-.87h1.73v-.87h.87v-.87h.87v-.87h1.73v-.87h.87v-.87h.87v-.76s.1-.07.15-.11h1.58v-.87h.87v-.87h.87v-.62c.11-.08.23-.16.34-.24h1.39v-.87h.87v-.81s.05-.04.08-.06h.79v-.62c.11-.08.21-.17.31-.25h1.42v-.87h.87v-.87h.87v-.74c.05-.04.11-.09.16-.13h1.57v-.87h.87v-.87h.87v-.86s0,0,.01,0h1.72v-.87h.87v-.87h.87v-.87h.87v-.87h1.73v-.87h.87v-.87h.87v-.87h.87v-.87h.87v-.87h.87v-.87h.87v-.82s.04-.03.06-.05h.81v-.7c.06-.06.13-.11.19-.17h.67v-.58c.11-.1.22-.19.33-.29h.54v-.46c.15-.14.31-.26.47-.4h1.27v-.87h.87v-.87h.87v-.87h.87v-.87h.87v-.87h.87v-.87h.87v-.87h.87v-.87h.87v-.86s0,0,.01-.01h.85v-.81s.04-.04.06-.05h1.68v-.87h.87v-.87h.87v-1.65s.05-.05.08-.08h.79v-.83s.02-.03.04-.04h.83v-.87h.87v-.87h.87v-.87h.87v-.87h.87v-.87h.87v-.87h.87v-.87h.87v-.87h.87v-.87h.87v-1.3c.13-.14.25-.29.38-.44h.49v-.56c.09-.1.18-.21.27-.31h.6v-.69c.05-.06.1-.12.15-.17h.72v-.82s.02-.03.04-.04h.83v-.87h.87v-.87h.87v-.87h.87v-.87h.87v-.87h.87v-.87h.87v-1.73h.87v-.87h.87v-.87h.87v-.87h.87v-1.73h.87v-.87h.87v-.87h.87v-1.57c.04-.05.08-.11.12-.16h.74v-.87h.87v-.87h.87v-1.41c.08-.11.17-.22.26-.33h.61v-.77s.05-.06.07-.09h.79v-.87h.87v-1.43c.07-.1.14-.21.22-.31h.65v-.87h.87v-.87h.87v-1.6s.06-.09.09-.13h.78v-.87h.87v-.87h.87v-1.73h.87v-.87h.87v-.87h.87v-1.73h.87v-1.65s.04-.06.06-.09h.81v-.87h.87v-1.73h.87v-.87h.87v-1.73h.87v-1.45c.06-.1.12-.19.18-.28h.68v-.87h.87v-1.54c.04-.06.08-.13.12-.19h.74v-1.17c.11-.18.21-.38.32-.56h.54v-.87h.87v-1.58c.03-.05.06-.1.09-.15h.78v-1.35c.07-.13.15-.26.22-.39h.64v-.87h.87v-1.73h.87v-.87h.87v-1.73h.87v-1.73h.87v-1.73h.87v-1.72s0-.01,0-.02h.86v-1.67s.02-.04.03-.06h.83v-1.62s.04-.07.06-.11h.81v-1.57c.03-.05.06-.11.08-.16h.78v-1.53c.03-.07.07-.14.11-.21h.76v-1.48c.04-.09.09-.17.13-.26h.74v-1.43c.05-.1.11-.2.16-.3h.71v-1.47c.04-.09.08-.18.12-.26h.75v-1.65s.02-.06.04-.09h.83v-1.73h.87v-1.73h.87v-1.73h.87v-1.73h.87v-2.53s.02-.05.03-.07h.83v-1.73h.87v-1.73h.87v-2.6h.87v-2.38c.03-.07.06-.15.09-.22h.78v-1.96c.08-.21.17-.42.25-.63h.62v-1.55c.02-.06.05-.12.07-.18h.8v-2.01c.07-.2.16-.39.23-.59h.63v-1.84c.09-.25.17-.51.26-.76h.61v-1.73h.87v-2.6h.87v-2.55s.01-.03.02-.05h.85v-2.5s.02-.07.03-.1h.83v-1.73h.87v-3.47h.87v-3.31c.02-.05.03-.11.05-.16h.82v-2.88c.06-.2.11-.39.17-.59h.7v-2.45c.09-.34.2-.68.29-1.02h.58v-2.07c.12-.46.21-.93.32-1.39h.54v-2.34c.09-.37.17-.75.26-1.12h.61v-2.6h.87v-3.47h.87v-3.47h.87v-5.42c.04-.21.08-.43.12-.65h.75v-4.18c.06-.34.13-.68.18-1.02h.68v-3.81c.12-.75.22-1.51.33-2.26h.54v-4.22c.04-.33.08-.65.12-.98h.74v-5.81c0-.09.02-.17.03-.26h.83v-8.98c.02-.18.03-.37.04-.55h.82v-13h.87v-25.13h-.87v-12.13h-.81c-.02-.26-.04-.53-.06-.79v-8.74h-.8c-.02-.17-.05-.33-.06-.5v-5.56h-.71c-.05-.41-.1-.82-.16-1.22v-3.98h-.51c-.12-.83-.23-1.67-.36-2.5v-3.56h-.64c-.07-.42-.15-.84-.23-1.27v-4.8h-.86s0-.02,0-.03v-4.72Zm-22.53,16.88v6.07h.87v5.2h.87v6.06h.87v13h.87v31.19h-.87v13h-.87v6.06h-.87v5.2h-.87v6.06h-.87v5.2h-.87v6.06h-.87v3.47h-.87v3.47h-.87v3.47h-.87v2.6h-.87v3.47h-.87v3.47h-.87v3.47h-.87v3.47h-.87v2.6h-.87v2.6h-.87v2.6h-.87v1.73h-.87v2.6h-.87v2.6h-.87v1.73h-.87v2.6h-.87v2.6h-.87v2.6h-.87v1.73h-.87v2.6h-.87v1.73h-.87v1.73h-.87v1.73h-.87v1.73h-.87v1.73h-.87v1.73h-.87v1.73h-.87v1.73h-.87v1.73h-.87v1.73h-.87v1.73h-.87v2.6h-.87v1.73h-.87v1.73h-.87v.87h-.87v1.73h-.87v.87h-.87v1.73h-.87v1.73h-.87v.87h-.87v1.73h-.87v1.73h-.87v.87h-.87v1.73h-.87v1.73h-.87v.87h-.87v1.73h-.87v1.73h-.87v.87h-.87v1.73h-.87v.87h-.87v1.73h-.87v.87h-.87v.87h-.87v1.73h-.87v.87h-.87v.87h-.87v1.73h-.87v.87h-.87v.87h-.87v1.73h-.87v.87h-.87v.87h-.87v1.73h-.87v.87h-.87v.87h-.87v1.73h-.87v.87h-.87v.87h-.87v1.73h-.87v.87h-.87v.87h-.87v.87h-.87v.87h-.87v.87h-.87v.87h-.87v.87h-.87v.87h-.87v.87h-.87v.87h-.87v1.73h-.87v.87h-.87v.87h-.87v.87h-.87v.87h-.87v.87h-.87v.87h-.87v.87h-.87v.87h-.87v.87h-.87v1.73h-.87v.87h-1.73v.87h-.87v.87h-.87v.87h-.87v.87h-.87v.87h-.87v.87h-.87v.87h-.87v.87h-.87v.87h-1.73v.87h-.87v.87h-.87v.87h-.87v.87h-.87v.87h-.87v.87h-.87v.87h-.87v.87h-.87v.87h-.87v.87h-1.73v.87h-.87v.87h-.87v.87h-.87v.87h-1.73v.87h-.87v.87h-.87v.87h-1.73v.87h-.87v.87h-.87v.87h-1.73v.87h-.87v.87h-.87v.87h-1.73v.87h-.87v.87h-.87v.87h-1.73v.87h-.87v.87h-.87v.87h-1.73v.87h-.87v.87h-1.73v.87h-.87v.87h-1.73v.87h-1.73v.87h-.87v.87h-1.73v.87h-1.73v.87h-.87v.87h-1.73v.87h-1.73v.87h-.87v.87h-1.73v.87h-1.73v.87h-.87v.87h-1.73v.87h-.87v.87h-1.73v.87h-1.73v.87h-1.73v.87h-1.73v.87h-2.6v.87h-1.73v.87h-1.73v.87h-1.73v.87h-1.73v.87h-1.73v.87h-1.73v.87h-1.73v.87h-1.73v.87h-1.73v.87h-1.73v.87h-2.6v.87h-2.6v.87h-2.6v.87h-1.73v.87h-2.6v.87h-2.6v.87h-2.6v.87h-1.73v.87h-2.6v.87h-2.6v.87h-1.73v.87h-3.47v.87h-3.47v.87h-3.47v.87h-3.47v.87h-3.47v.87h-3.47v.87h-3.47v.87h-3.47v.87h-4.33v.87h-6.07v.87h-5.2v.87h-6.07v.87h-6.07v.87h-9.53v.87h-11.09c-5.76-22.45-26.09-39.09-50.39-39.09-19.3,0-36.12,10.54-45.1,26.14v-.05h-2.6v-.87h-2.6v-.87h-2.6v-.87h-1.73v-.87h-2.6v-.87h-2.6v-.87h-2.6v-.87h-1.73v-.87h-2.6v-.87h-2.6v-.87h-1.73v-.87h-2.6v-.87h-1.73v-.87h-1.73v-.87h-1.73v-.87h-1.73v-.87h-1.73v-.87h-1.73v-.87h-1.73v-.87h-1.73v-.87h-1.73v-.87h-1.73v-.87h-1.73v-.87h-2.6v-.87h-1.73v-.87h-.87v-.87h-1.73v-.87h-1.73v-.87h-.87v-.87h-1.73v-.87h-1.73v-.87h-.87v-.87h-1.73v-.87h-1.73v-.87h-.87v-.87h-1.73v-.87h-1.73v-.87h-.87v-.87h-1.73v-.87h-.87v-.87h-1.73v-.87h-1.73v-.87h-.87v-.87h-.87v-.87h-1.73v-.87h-.87v-.87h-.87v-.87h-1.73v-.87h-.87v-.87h-.87v-.87h-1.73v-.87h-.87v-.87h-.87v-.87h-1.73v-.87h-.87v-.87h-1.73v-.87h-.87v-.87h-.87v-.87h-1.73v-.87h-.87v-.87h-.87v-.87h-.87v-.87h-.87v-.87h-1.73v-.87h-.87v-.87h-.87v-.87h-.87v-.87h-.87v-.87h-.87v-.87h-.87v-.87h-.87v-.87h-.87v-.87h-.87v-.87h-1.73v-.87h-.87v-.87h-.87v-.87h-.87v-.87h-.87v-.87h-.87v-.87h-.87v-.87h-.87v-.87h-.87v-.87h-.87v-.87h-.87v-.87h-.87v-.87h-.87v-.87h-.87v-.87h-.87v-.87h-.87v-.87h-.87v-.87h-.87v-.87h-.87v-.87h-.87v-1.73h-.87v-.87h-.87v-.87h-.87v-.87h-.87v-.87h-.87v-.87h-.87v-.87h-.87v-.87h-.87v-.87h-.87v-.87h-.87v-1.73h-.87v-.87h-.87v-.87h-.87v-.87h-.87v-1.73h-.87v-.87h-.87v-.87h-.87v-1.73h-.87v-.87h-.87v-.87h-.87v-1.73h-.87v-.87h-.87v-.87h-.87v-1.73h-.87v-.87h-.87v-.87h-.87v-1.73h-.87v-.87h-.87v-.87h-.87v-1.73h-.87v-.87h-.87v-.87h-.87v-1.73h-.87v-1.73h-.87v-.87h-.87v-1.73h-.87v-1.73h-.87v-.87h-.87v-1.73h-.87v-1.73h-.87v-.87h-.87v-1.73h-.87v-.87h-.87v-1.73h-.87v-1.73h-.87v-.87h-.87v-1.73h-.87v-1.73h-.87v-1.73h-.87v-1.73h-.87v-1.73h-.87v-1.73h-.87v-1.73h-.87v-1.73h-.87v-1.73h-.87v-1.73h-.87v-1.73h-.87v-1.73h-.87v-1.73h-.87v-1.73h-.87v-1.73h-.87v-2.6h-.87v-1.73h-.87v-2.6h-.87v-1.73h-.87v-2.6h-.87v-2.6h-.87v-2.6h-.87v-1.73h-.87v-2.6h-.87v-2.6h-.87v-2.6h-.87v-1.73h-.87v-3.47h-.87v-2.6h-.87v-3.47h-.87v-3.47h-.87v-3.47h-.87v-3.47h-.87v-3.47h-.87v-3.47h-.87v-3.47h-.87v-6.07h-.87v-5.2h-.87v-6.07h-.87v-5.2h-.87v-6.93h-.87v-13h-.87v-28.59h.87v-12.13h.87v-6.93h.87v-6.06h.87v-5.2h.87v-6.06h.87v-5.2h.87v-4.33h.87v-3.47h.87v-2.6h.87v-3.47h.87v-3.47h.87v-3.47h.87v-3.47h.87v-3.47h.87v-2.6h.87v-2.6h.87v-1.73h.87v-2.6h.87v-2.6h.87v-2.6h.87v-1.73h.87v-2.6h.87v-2.6h.87v-2.6h.87v-1.73h.87v-2.6h.87v-1.73h.87v-1.73h.87v-1.73h.87v-1.73h.87v-1.73h.87v-1.73h.87v-1.73h.87v-1.73h.87v-1.73h.87v-1.73h.87v-2.6h.87v-1.73h.87v-1.73h.87v-1.73h.87v-.87h.87v-1.73h.87v-1.73h.87v-.87h.87v-1.73h.87v-1.73h.87v-.87h.87v-1.73h.87v-.87h.87v-1.73h.87v-1.73h.87v-.87h.87v-1.73h.87v-1.73h.87v-.87h.87v-1.73h.87v-.87h.87v-1.73h.87v-.76c6.95,3.43,14.74,5.41,23.02,5.41,28.74,0,52.04-23.28,52.04-52.04,0-8.53-2.09-16.55-5.73-23.66h.85v-.87h.87v-.87h1.73v-.87h.87v-.87h.87v-.87h1.73v-.87h.87v-.87h1.73v-.87h1.73v-.87h.87v-.87h1.73v-.87h1.73v-.87h.87v-.87h1.73v-.87h1.73v-.87h.87v-.87h1.73v-.87h.87v-.87h1.73v-.87h1.73v-.87h.87v-.87h1.73v-.87h1.73v-.87h1.73v-.87h1.73v-.87h1.73v-.87h1.73v-.87h1.73v-.87h1.73v-.87h1.73v-.87h1.73v-.87h1.73v-.87h1.73v-.87h2.6v-.87h1.73v-.87h1.73v-.87h1.73v-.87h1.73v-.87h2.6v-.87h2.6v-.87h2.6v-.87h1.73v-.87h2.6v-.87h2.6v-.87h2.6v-.87h1.73v-.87h2.6v-.87h2.6v-.87h2.6v-.87h3.47v-.87h3.47v-.87h3.47v-.87h3.47v-.87h3.47v-.87h2.6v-.87h3.47v-.87h4.33v-.87h6.07v-.87h5.2v-.87h6.06v-.87h5.2v-.87h8.66v-.87h12.13v-.87h25.13v.87h12.13v.87h8.66v.87h5.2v.87h6.07v.87h5.2v.87h6.07v.87h4.33v.87h3.47v.87h3.47v.87h2.6v.87h3.47v.87h3.47v.87h3.47v.87h3.47v.87h2.6v.87h2.6v.87h2.6v.87h2.6v.87h1.73v.87h2.6v.87h2.6v.87h2.6v.87h1.73v.87h2.6v.87h2.6v.87h1.73v.87h1.73v.87h2.6v.87h1.73v.87h1.73v.87h1.73v.87h1.73v.87h1.73v.87h1.73v.87h1.73v.87h1.73v.87h1.73v.87h1.73v.87h1.73v.87h1.73v.87h1.73v.87h1.73v.87h.87v.87h1.73v.87h1.73v.87h.87v.87h1.73v.87h1.73v.87h.87v.87h1.73v.87h1.73v.87h.87v.87h1.73v.87h.87v.87h1.73v.87h1.73v.87h.87v.87h1.73v.87h.87v.87h.87v.87h1.73v.87h.87v.87h.87v.87h1.73v.87h.87v.87h.87v.87h1.73v.87h.87v.87h.87v.87h1.73v.87h.87v.87h.87v.87h1.73v.87h.87v.87h.87v.87h1.73v.87h.87v.87h.87v.87h.87v.87h.87v.87h.87v.87h.87v.87h.87v.87h1.73v.87h.87v.87h.87v.87h.87v.87h.87v.87h.87v.87h.87v.87h.87v.87h.87v.87h.87v.87h1.73v.87h.87v.87h.87v.87h.87v.87h.87v.87h.87v.87h.87v.87h.87v1.73h.87v.87h.87v.87h.87v.87h.87v.87h.87v.87h.87v.87h.87v.87h.87v.87h.87v.87h.87v.87h.87v1.73h.87v.87h.87v.87h.87v.87h.87v.87h.87v.87h.87v.87h.87v.87h.87v1.73h.87v.87h.87v.87h.87v1.73h.87v.87h.87v.87h.87v1.73h.87v.87h.87v.87h.87v1.73h.87v.87h.87v.87h.87v1.73h.87v.87h.87v.87h.87v1.73h.87v.87h.87v.87h.87v1.73h.87v1.73h.87v.87h.87v1.73h.87v.87h.87v1.73h.87v1.73h.87v.87h.87v1.73h.87v1.73h.01c-12.29,9.53-20.24,24.39-20.24,41.13,0,28.8,23.34,52.06,52.09,52.06,1.53,0,3.03-.1,4.52-.23v3.22h.87v5.2h.87Z"/><g id="g60"><path class="cls-2" d="m414.22,484.02c21.34-11.25,40.24-26.33,55.85-44.39l-6.24-256.27c-16.47-17.33-36.08-31.53-57.94-41.76l3.86,158.62-172.65,4.2-3.83-157.48c-21.22,11.61-39.95,27.08-55.38,45.45l3.45,141.88c.09,3.9.93,7.56,2.45,11,1.52,3.44,3.59,6.39,6.19,8.89,2.58,2.46,5.66,4.42,9.15,5.83,3.51,1.45,7.3,2.13,11.36,2.04l200.65-4.88,3.09,126.87Z"/><g class="cls-1"><g id="g62"><path id="path76" class="cls-4" d="m414.22,484.02c21.34-11.25,40.24-26.33,55.85-44.39l-6.24-256.27c-16.47-17.33-36.08-31.53-57.94-41.76l3.86,158.62-172.65,4.2-3.83-157.48c-21.22,11.61-39.95,27.08-55.38,45.45l3.45,141.88c.09,3.9.93,7.56,2.45,11,1.52,3.44,3.59,6.39,6.19,8.89,2.58,2.46,5.66,4.42,9.15,5.83,3.51,1.45,7.3,2.13,11.36,2.04l200.65-4.88,3.09,126.87"/></g></g></g></svg>