<?xml version="1.0" encoding="UTF-8"?><svg id="katman_1" xmlns="http://www.w3.org/2000/svg" viewBox="0 0 666 666"><defs><style>.cls-1{fill:#dca958;stroke-width:0px;}</style></defs><polygon class="cls-1" points="255.77 286.01 319.71 285.04 284.83 174.6 63.94 168.79 14.53 211.41 0 441.99 47.47 497.22 298.4 480.75 319.71 363.52 267.4 363.52 250.92 410.99 97.85 429.4 86.23 260.82 241.24 249.2 255.77 286.01"/><polygon class="cls-1" points="604 375.63 601.09 434.73 407.32 413.41 426.7 238.06 602.06 257.43 617.56 300.06 665.03 290.37 651.47 181.86 386.01 162.49 339.51 217.71 339.51 448.29 405.39 503.51 655.34 498.67 666 382.41 604 375.63"/></svg>