<?xml version="1.0" encoding="UTF-8"?><svg id="katman_1" xmlns="http://www.w3.org/2000/svg" viewBox="0 0 666 666"><defs><style>.cls-1{fill:#dca958;fill-rule:evenodd;stroke-width:0px;}</style></defs><path class="cls-1" d="M599.67,174.88l-93.83-55.79-79.26,46.64v-57.14l-93.69-55.59-93.4,55.59v57.74l-80.19-47.24-92.96,55.84v111.13l78.83,47.09-78.83,47.09v110.23l92.96,56.74,79.22-46.89v57.79l93.88,54.89,94.27-54.89-.19-57.79,79.41,46.89,93.79-56.74v-110.23l-79.17-47.09,79.17-47.09v-111.18ZM505.83,136.54l71.83,42.69-158.33,93.78-40.8-24.35,48.03-28.49v-37.04l79.26-46.59ZM254.15,125.99l71.45,42.54v85.43l-9.47-5.65-14.67-8.7-47.31-28.15v-85.49ZM411.9,211.47l-62.65,37.14-8.99,5.35v-85.43l71.64-42.54v85.49ZM332.93,155.43l-71.44-42.49,71.44-42.54,71.59,42.54-71.59,42.49ZM159.39,136.54l80.09,47.19v36.44l47.4,28.19-41.04,24.6-157.56-93.73,71.1-42.69ZM81,277.36v-85.03l150.22,89.38-71.44,42.69-78.78-47.04ZM152.01,525.22l-71.01-43.34v-84.13l71.01,42.64v84.83ZM88.24,384.59l157.65-94.18,71.78,41.94-158.33,94.93-71.1-42.69ZM325.06,591.35l-71.88-41.99v-57.74l71.88-42.54v142.27ZM325.06,431.68l-158.38,93.73v-85.03l158.38-94.98v86.29ZM260.56,281.61l40.94-24.55,31.38,18.7,31.04-18.4,40.65,24.25-72.17,41.99-71.83-41.99ZM339.73,591.4v-142.33l72.08,42.54.15,57.74-72.22,42.04ZM498.5,525.47l-158.77-93.83v-86.23l158.77,94.98v85.08ZM585,481.87l-71.83,43.44v-84.93l71.83-42.74v84.23ZM577.71,384.59l-71.88,42.69-158.72-94.93,72.17-41.94,158.43,94.18ZM585,277.36l-79.17,47.09-71.83-42.74,151-89.43v85.09Z"/></svg>