<?xml version="1.0" encoding="UTF-8"?><svg id="katman_1" xmlns="http://www.w3.org/2000/svg" viewBox="0 0 666 666"><defs><style>.cls-1{fill:#dca958;fill-rule:evenodd;stroke-width:0px;}</style></defs><path class="cls-1" d="M299.81,424c13.77-8.87,24.83-16,33.19-16s19.43,7.13,33.19,16c22.7,14.63,52.75,34,90.22,34,69.91,0,126.58-55.96,126.58-125s-56.67-125-126.58-125c-37.47,0-67.53,19.37-90.22,34-13.77,8.87-24.83,16-33.19,16s-19.43-7.13-33.19-16c-22.7-14.63-52.75-34-90.22-34-69.91,0-126.58,55.96-126.58,125s56.67,125,126.58,125c37.47,0,67.53-19.37,90.22-34ZM281.47,361.75c7.3-4.34,27.34-16.25,51.53-16.25s44.23,11.91,51.53,16.25l.51.3c5.04,2.99,10.19,6.31,14.47,9.07l.26.17c4.66,3,8.82,5.68,13.14,8.31,17.67,10.74,30.88,15.9,43.51,15.9,36.13,0,64.08-28.72,64.08-62.5s-27.95-62.5-64.08-62.5c-12.63,0-25.84,5.16-43.51,15.9-4.32,2.63-8.48,5.31-13.14,8.31l-.25.16c-4.29,2.76-9.44,6.08-14.47,9.07l-.51.3c-7.3,4.34-27.34,16.25-51.53,16.25s-44.23-11.91-51.53-16.25l-.51-.3c-5.04-2.99-10.19-6.31-14.47-9.07l-.26-.16c-4.66-3-8.82-5.68-13.14-8.31-17.67-10.74-30.88-15.9-43.51-15.9-36.14,0-64.08,28.72-64.08,62.5s27.95,62.5,64.08,62.5c12.63,0,25.84-5.17,43.51-15.9,4.33-2.63,8.48-5.31,13.14-8.31l.26-.17c4.28-2.76,9.44-6.08,14.47-9.07l.51-.3Z"/></svg>