<?xml version="1.0" encoding="UTF-8"?><svg id="katman_1" xmlns="http://www.w3.org/2000/svg" viewBox="0 0 666 666"><defs><style>.cls-1{fill:#dcaa57;stroke-width:0px;}.cls-2{fill:none;stroke:#dcaa57;stroke-miterlimit:10;}</style></defs><circle class="cls-2" cx="333" cy="333" r="278.5"/><path class="cls-1" d="M356.42,272.66c.33-23.87,17.3-44.26,40.71-48.92v-47.09c-23.92,2.5-46.08,13.76-62.2,31.61l-1.81,2.09-1.81-2.09c-16.07-17.92-38.25-29.19-62.2-31.61v47.11c23.39,4.6,40.37,24.93,40.73,48.76v120.85c-.34,23.86-17.3,44.24-40.71,48.9v47.11c23.92-2.51,46.06-13.78,62.18-31.63l1.81-2.09,1.83,2.09c16.25,18.1,38.25,29.15,62.18,31.61v-47.09c-23.39-4.6-40.37-24.93-40.73-48.76l.02-120.85Z"/></svg>