<?xml version="1.0" encoding="UTF-8"?><svg id="katman_1" xmlns="http://www.w3.org/2000/svg" viewBox="0 0 666 666"><defs><style>.cls-1{fill:#dca958;stroke-width:0px;}</style></defs><path id="lava" class="cls-1" d="M333.05,565.83L77,436.98l117.13-178.68,103.68-158.14h70.38l103.68,158.14,117.13,178.68-256,128.85h.05ZM338.15,182.01c0,4.67,2.65,8.95,6.83,11.02l95.86,47.58c.93.47,1.88-.6,1.32-1.47l-81.69-124.6h-22.32v67.47ZM559.19,435.96l9.02-4.55-92.39-140.89c-.55-.85-1.87-.45-1.87.55v96.36c0,3.8,2.15,7.27,5.55,8.95l79.69,39.56v.03ZM192.31,391.35l-82.44,40.93c-3.77,1.87-3.8,7.27,0,9.17l4.57,2.3c4.32,2.17,9.43,2.2,13.75.02l70.8-35.14,134.27,66.65,135.47-67.25c5.55-2.75,5.55-10.67,0-13.42l-5.6-2.77c-1.4-.7-2.27-2.12-2.27-3.67v-122.78l-120.45-59.78c-1.4-.7-2.27-2.12-2.27-3.67v-4.8c0-3.7-3.9-6.12-7.22-4.47l-127.5,63.3c-6.8,3.37-11.1,10.32-11.1,17.92v117.48-.03ZM207.45,270.92v112.71l117.35-58.25v-112.71l-117.35,58.25ZM333,456.9l115.83-57.5-115.83-57.5-115.83,57.5,115.83,57.5Z"/></svg>