<?xml version="1.0" encoding="UTF-8"?><svg id="katman_1" xmlns="http://www.w3.org/2000/svg" viewBox="0 0 666 666"><defs><style>.cls-1{fill:#dca958;stroke-width:0px;}</style></defs><g id="mantra"><path class="cls-1" d="M531.99,116.14c-49.42,48.24-96.85,94.76-144.56,140.98-35.68,34.56-72.63,34.61-107.99.29-47.7-46.29-95.14-92.82-145.07-141.57-12.26,12.96-21.89,25.23-33.6,35.02-15.42,12.9-19.28,28.21-19.14,47.69.76,116.98.37,233.95.39,350.93,0,52.64.03,51.94,52.84,52.51,17.47.19,23.06-4.5,22.91-22.55-.81-102.18-.37-204.36-.37-306.55v-21.33c2.18-1.23,4.37-2.44,6.55-3.67,18.75,19.84,37.06,40.11,56.33,59.42,69.76,69.84,156.14,69.86,225.87.15,18.79-18.78,36.8-38.34,55.18-57.55,1.92,1.1,3.85,2.19,5.77,3.29v236.97c0,31.59-.45,63.21.47,94.78.16,5.53,5.81,15.35,9.44,15.59,21.77,1.47,43.69.73,64.91.73,1.31-5.06,2.22-6.96,2.23-8.87.16-137.15.27-274.28.19-411.43,0-4.43-.77-10.09-3.5-13.1-15.56-17.25-31.82-33.85-48.85-51.74h0Z"/><path class="cls-1" d="M382.14,114.95c-17.04-17.7-33.94-35.25-49.05-50.95-16.55,16.16-33.68,32.89-50.43,49.24,16.31,16.55,33.09,33.57,49.05,49.76,18.47-17.61,35.76-34.06,50.43-48.05Z"/></g></svg>