<?xml version="1.0" encoding="UTF-8"?><svg id="katman_1" xmlns="http://www.w3.org/2000/svg" viewBox="0 0 666 666"><defs><style>.cls-1{fill:#dca958;fill-rule:evenodd;stroke-width:0px;}</style></defs><path class="cls-1" d="M3.76,587.1c-8.48,14.49,1.94,32.74,18.74,32.78l129.8.35,343.41-247.98-199.92,248.55,37.15.05,128.72.38,62.32-195.91,23.43,196.22,95.97.25c16.8.04,27.32-18.15,18.91-32.68l-154.28-266.83L353.53,55.08c-8.36-14.46-29.22-14.52-37.66-.1l-49.81,85.15,160.53,118.48-203.87-44.84-63.01,107.45-20.57,35.35,319.82-47.23L65.89,480.95,3.76,587.1ZM552.84,286.06c8.43,1.87,13.38,10.64,10.62,18.82l-24.15,71.53-61.89-107.04,75.42,16.69Z"/></svg>