<?xml version="1.0" encoding="UTF-8"?><svg id="katman_2" xmlns="http://www.w3.org/2000/svg" viewBox="0 0 538 538.56"><defs><style>.cls-1{fill:#dca958;stroke-width:0px;}</style></defs><g id="katman_1"><g id="selfchain"><g id="Layer_1-2"><path class="cls-1" d="M316.14,538.56h-94.27c-69.06-.1-125-56.09-125.04-125.15h53.92c.01,39.29,31.83,71.15,71.12,71.22h94.27c39.36-.11,71.18-32.1,71.07-71.46-.06-21.04-9.41-40.98-25.55-54.48l-215.3-133.98c-.91-.56-1.78-1.17-2.61-1.84-53.96-43.21-62.68-121.98-19.48-175.94C148,17.3,183.9.04,221.86,0h94.27c69.06.1,125,56.09,125.04,125.15h-53.92c-.01-39.29-31.83-71.15-71.12-71.22h-94.27c-39.36.11-71.18,32.1-71.07,71.46.06,21.04,9.41,40.98,25.55,54.48l215.34,133.98c.91.56,1.79,1.17,2.63,1.84,53.95,43.24,62.64,122.03,19.4,175.98-23.73,29.6-59.6,46.85-97.53,46.9h-.04Z"/><path class="cls-1" d="M412.96,441.62v-53.8c39.29-.08,71.11-31.95,71.12-71.24v-94.5c.06-39.27-31.72-71.15-70.98-71.21-21.13-.03-41.19,9.34-54.72,25.57l-133.84,215.61c-.56.9-1.18,1.77-1.84,2.61-43.11,53.94-121.78,62.72-175.72,19.62C17.25,390.51-.04,354.52,0,316.47v-94.4c.05-69.06,55.99-125.04,125.04-125.15v53.92c-39.29.07-71.11,31.93-71.12,71.22v94.4c-.06,39.27,31.72,71.15,70.98,71.21,21.13.03,41.19-9.34,54.72-25.57l133.84-215.61c.56-.9,1.18-1.77,1.84-2.61,43.11-53.94,121.78-62.72,175.72-19.62,29.72,23.75,47.01,59.75,46.97,97.79v94.4c-.05,69.06-55.99,125.04-125.04,125.15Z"/></g></g></g></svg>