<?xml version="1.0" encoding="UTF-8"?><svg id="Isolation_Mode" xmlns="http://www.w3.org/2000/svg" viewBox="0 0 366.12 97.69"><defs><style>.cls-1{fill-rule:evenodd;stroke:#424142;}.cls-1,.cls-2{fill:#dca958;stroke-miterlimit:10;}.cls-2{stroke:#424143;}</style></defs><path class="cls-1" d="M60.71,71.19c1.34-1.22,2.62-2.5,3.84-3.84.79-.67,1.52-1.41,2.19-2.19.51-.4.97-.86,1.37-1.37.72-1.3,1.94-2.08,2.19-3.84-3.6,1.06-8.98.35-10.43,3.57-.8.94-1.79,1.68-2.61,2.61-1.9,1.44-3.66,3.01-5.62,4.39.94,1.21,1.69,2.61,1.92,4.53,3.52.64,5.06,3.26,7.82,4.66.29.41.72-.18,1.23,0,.64-.09,1.64.18,2.06-.14.81.04,1.54-.01,2.06-.27.37-1.55-.11-3.22-1.92-3.02-.69-.32-1.96-.05-2.88-.14-1.6-.41-2.77-3.09-1.65-4.53.2-.08.33-.21.41-.41Z"/><path class="cls-1" d="M102.96,59.8c.16,2.13.95,3.63,2.74,4.12.62-4.83,1.85-9.04,2.33-13.99-.06-.48-.35-.75-.55-1.1-.2.07-.71-.16-.69.14-1.49.98-3.32,1.62-4.12,3.29-.31.23-.05,1.05-.14,1.51.09.78-.18,1.92.14,2.47.09.64-.18,1.64.14,2.06.09.46-.18,1.27.14,1.51Z"/><path class="cls-1" d="M9.13,75.71c.72.97,1.9,1.47,2.61,2.06h.27c.64.5,2.32.29,3.02,0,2.43-.26,4.71-.68,7.13-.96.81.08,1.22-.24,2.06-.14,1.56.22,3.06.51,4.66.69,0,.13.17.11.27.14.28.23,1.5.23,1.78,0,.16.02.24-.03.27-.14,1.56-.45,2.53-1.5,3.7-2.33.11-.03.14-.14.27-.14.65-.54,1.25-1.13,1.78-1.78.05-.18.24-.22.27-.41.82-.97,1.88-2.62,2.33-4.25.55-2.02.12-4.93,1.78-5.76.51-.4.97-.86,1.37-1.37.27-.51.7-.85.69-1.65.33-.69.15-1.22.14-2.06-.29-1.72-.91-3.12-.96-5.08.09-.46-.18-1.27.14-1.51.91,3.26,3.13,6.49,2.33,10.56-.4.83-1.09,1.38-1.65,2.06-1.07,1.31-1.13,3.62-1.37,5.76-.3-.02-.06.49-.14.69-.23.55-.23,2.05,0,2.61.08.24-.17.81.14.82-.06.79.06,1.41.14,2.06,2.05-.33,3.92-.83,6.17-.96h1.65c.62-.05,1.11.54,1.51.27-.21-1.89-1.49-2.72-2.06-4.25,1.95-2.69,5.6-5,8.37-7.41.88-.77,1.7-1.59,2.47-2.47,1.53-2.04,2.72-4.42,3.7-7,.32.82.05,2.24.14,3.29v.82c.07.43-.25.48-.14.96-.25.02-.08.46-.27.55.24.23,1.41.23,1.65,0,8.02-1.31,14.53-4.13,21.67-6.31.81-.1.24-1.59.41-2.33v-.96c.31-.19.05-.95.14-1.37v-.82c.23-.24.23-1.41,0-1.65-.07-.2.16-.71-.14-.69v-.14c2.47,3.09,2.82,8.79,3.7,13.72.92,5.11,2.4,9.5,5.62,12.07,2.77-.33,4.98,2.4,7.68,2.06,1.9-.24,3.1-1.96,5.21-2.19-.52-2.45-1.17-4.77-3.84-5.08-.02-.3-.58-.06-.82-.14-.76-.29-2.11,0-2.61-.55-2.18-2.49-2.32-7-2.61-11.39v-2.47c.69-.4,1.24-.96,1.51-1.78,2.5-.2,2.82-2.28,5.35-2.61.79-.67,1.52-1.41,2.19-2.2,3.35-4.83,1.99-14.38,3.98-20.58,1.97.09,2.64,2.63,4.8,2.2.8-.16,1.09-1.42,1.78-2.06.67-.61,2.36-.89,2.88-1.65.69-1.01.23-2.6.14-3.57v-2.19c-.18-.64.31-.61.55-.82.23,0,.36-.1.41-.27.23-.37.23-1.69,0-2.06-.24-2.9-2.96-3.46-2.61-6.58-1.74.13-2.36-.25-3.57-1.1-.57-.07-.22.79-.69.82.46-2.58-1.93-3.82-3.57-2.33-.35.15-.66.35-.82.69-.24.12-.42.31-.55.55-.13,0-.11-.17-.14-.27v-.55c-3.47.56-6.06,1.99-8.5,3.57-1.2,1.09-2.34,2.23-3.43,3.43-.18.05-.22.24-.41.27v.14c-.82.65-1.95.97-3.29,1.1-.2.08-.71-.16-.69.14-.92.09-1.32.69-1.92,1.1h-.14c-1.43,1.31-2.8,2.69-4.12,4.12-.33.22-.61.49-.82.82-9.91,7.96-25.34,10.41-37.59,16.05-.53.15-.99.38-1.37.69-1.01.55-1.98,1.13-3.02,1.65-.59.46-1.12.99-1.51,1.65-3.19,5.13-5.55,11.09-8.09,16.87-.44.65-.81,1.39-1.1,2.19-1.05,2.1-2.5,3.81-3.7,5.76-.2.08-.34.21-.41.41-.7.58-1.34,1.22-1.92,1.92-.29.17-.52.4-.69.69-2.01,1.38-4.12,2.65-7.13,3.02h-2.2c-1.85-.26-3.5-.71-4.39-1.92.76-.25,1.6-.41,2.19-.82-.2-4.41-1.7-7.54-5.49-8.37,0-.13-.17-.11-.27-.14-.28-.23-1.5-.23-1.78,0-.19-.01-.39-.02-.41.14-1.22.06-1.8.76-2.74,1.1-.48.39-.97.77-1.23,1.37-.96,2.65,1.18,3.58,1.92,5.62,1.05,2.9.44,6.36,1.92,8.37Z"/><path class="cls-1" d="M133.76,78.68l-7.45-.99c-3.23-2.19-6.81-4.04-9.77-6.51-.63.19-1.29.36-2.06.41-.51.09-1.37-.18-1.65.14-.2.08-.71-.16-.69.14-2.55-.1-5.63,2.73-7.96,2.88-2.33.15-3.85-1.73-6.31-2.06-1.56.84-1.75,2.49-3.29,3.29-1.63.85-4.02,1.18-6.04,1.78-2.37.72-4.94,1.42-6.58,2.47-.11.03-.14.14-.27.14-.56.45-1.06.95-1.51,1.51-1.23,2.06-4.14.42-6.31.27-.1-.31-.77-.05-1.1-.14.02-.3-.49-.06-.69-.14-.24-.23-1.41-.23-1.65,0h-.82c-.46.09-1.27-.18-1.51.14-.2.08-.71-.16-.69.14-1.47-.05-2.62.22-3.98.27-.42.09-1.18-.18-1.37.14-.23,0-.46,0-.69,0-3.41-2.22-6.04-5.21-10.84-6.04.02-.3-.49-.06-.69-.14-.19-.23-1.32-.23-1.51,0-.37.09-1.09-.17-1.23.14-5.26.45-9.15,2.28-14.13,3.02h-1.23c-6.4-1.83-13.49-.85-19.89.41-2.05,3.89-3.09,8.8-5.76,12.07,1.17.02,2.45-1.02,3.16-1.92.6-.5,1.35-.85,1.65-1.65,1.12-1.39,1.55-3.48,2.47-5.08,2.48-.63,5.3-.92,7.96-1.37h2.61c1.57.13,3.11.27,4.39.69-.09,1.42-.64,2.38-.82,3.7-.8.8-2.07,1.13-2.74,2.06,2.13-.55,6.1-.38,7-2.33.23-.5,0-1.63.41-2.33.73-1.22,5.74-2.52,7.41-3.02,3.19-.96,6.33-1.57,8.92-1.51,2.6.06,4.36,2.82,5.08,4.66.09,1.46-.18,3.29.14,4.53,0,.13.17.11.27.14,3.18,2.22,8,2.79,11.52,4.66.03.2.41.05.41.27.16-.02.12-.25.14-.41-.58-.7-1.22-1.34-1.92-1.92-1.67-.67-3.3-1.37-4.94-2.06-.47-.35-1.02-.63-1.65-.82-.39-.39-1.08-.47-1.37-.96v-4.39h.27c1.06.81,1.78,1.97,3.15,2.47,0,.13.17.11.27.14,2.01.23,4.98.23,7,0,1.43-.22,2.79-.5,4.25-.69h1.78c1.25.33,2.22.8,3.43,1.23.9.33,2.51,1.27,3.57,1.1,1.41-.23,3.54-4.47,5.08-5.08,3.62-1.43,8.39-1.74,10.7-3.43.92-.5,1.48-1.35,2.19-2.06.16.02.24-.03.27-.14h.27v2.33c-.99,1.85-3.34,1.71-4.53,3.43-1.3,1.89-.86,4.76-2.06,7.13-2.75,1.46-5.46,2.95-8.09,4.53,3.37-.38,6.57-2.12,9.6-3.29.85-2.35,1.82-4.58,2.61-7,2.22-1.8,4.94-3.11,5.62-6.45,4.51,1.95,6.93-2.79,11.93-2.47h1.51c1.1.17,1.45,1.35,2.61,1.78l11.49,6.55s22.67,5.38,4.63-4.4ZM124.67,77.47l-.65-.09c.22.03.44.05.65.09Z"/><path class="cls-2" d="M168.13,42.98c-1.54-.1-5.09-.14-6.62-.14s-5.66.05-7.1.14c0-1.34.1-2.21.34-2.98,2.35-.43,2.69-1.2,1.58-3.7l-1.1-2.59c-3.79,0-7.92.1-11.71.34l-.62,1.58c-.96,2.45-.53,4.08,1.82,4.37.24.82.34,1.78.34,2.98-1.1-.1-3.55-.14-5.14-.14s-3.41.05-4.32.14c0-1.06.1-2.06.38-2.98,1.63-.29,2.3-1.25,3.84-4.99l10.08-24.67c.96-.24,1.68-.24,2.88-.24l10.99,24.63c1.97,4.37,2.59,5.09,3.98,5.28.24.82.38,1.78.38,2.98ZM151.42,24.98c-1.01-2.26-1.73-4.22-2.26-6.14-.62,2.02-1.3,3.98-2.11,6.1l-2.4,6.1h9.36l-2.59-6.05Z"/><path class="cls-2" d="M198.75,42.98c-1.44-.05-3.94-.14-6.05-.14s-5.42.05-6.86.14c0-1.15.05-2.11.34-2.98,1.78,0,2.78-1.06,2.78-4.51v-5.04c0-4.03-1.34-5.38-3.65-5.38s-4.66,2.69-4.66,7.68v3.07c0,3.26.86,4.18,2.74,4.18.34.91.38,1.78.38,2.98-1.39-.1-4.42-.14-6.62-.14s-5.62.05-7.06.14c0-1.2.14-2.3.38-2.98,2.5,0,3.17-.96,3.17-4.18v-7.1c0-2.74-.34-3.7-3.46-3.89,0-1.01.1-2.02.53-2.83,3.5-.05,7.06-.82,8.54-1.58.86.34,1.39,1.1,1.39,2.64,0,.77-.14,1.78-.48,2.88.38-.82.72-1.63,1.39-2.35,1.3-1.49,3.65-2.93,6.67-2.93,4.03,0,7.68,2.11,7.68,7.82v7.34c0,3.22.67,4.18,2.4,4.18.34.82.43,1.73.43,2.98Z"/><path class="cls-2" d="M224.86,41.69c-2.35.1-5.09.62-7.25,1.58-1.06-.43-1.54-1.06-1.54-2.69,0-.58.05-1.2.19-1.87-.48,1.1-1.15,2.06-2.02,2.74-1.3,1.06-3.02,1.73-5.38,1.73-4.56,0-6.96-1.92-6.96-5.47,0-6.43,9.12-7.68,13.54-8.31,0-2.93-.24-4.03-1.06-4.99-.67-.77-1.68-1.2-2.69-1.2-2.64,0-3.55,2.74-3.79,5.38-1.58,0-2.93-.05-4.03-.48.14-1.73.14-3.74-.29-5.76,2.64-1.15,6-1.92,9.36-1.92,3.94,0,6.05.72,7.39,2.16,1.39,1.39,2.11,3.55,2.11,7.97v4.32c0,2.93.34,3.7,2.78,3.74.14,1.06.05,2.16-.38,3.07ZM215.45,31.99c-3.75.67-6.53,1.58-6.53,4.46,0,1.92,1.06,2.64,2.26,2.64,1.92,0,4.27-1.82,4.27-5.86v-1.25Z"/><path class="cls-2" d="M230,15.43c2.16-.29,4.51-1.25,5.81-2.35.96.38,1.2.86,1.2,2.98v5.28h5.9c0,1.2-.19,2.16-.48,3.07-2.11.05-3.89.29-5.42.77v9.7c0,3.89.77,4.94,2.5,4.94,1.01,0,2.06-.29,2.93-.82.38.53.67,1.44.72,2.4-1.25,1.06-3.89,1.87-6.38,1.87-4.51,0-6.77-2.11-6.77-7.63v-10.66c-.96-.38-1.97-.58-3.5-.62,0-1.15.1-2.02.53-3.02h2.98v-5.9Z"/><path class="cls-2" d="M269.79,31.66c0,7.1-4.8,11.62-12.29,11.62s-12-4.37-12-11.19c0-7.39,5.28-11.67,12.24-11.67,7.92,0,12.05,4.66,12.05,11.23ZM252.75,30.65c0,5.62,1.97,9.55,5.42,9.55,2.88,0,4.42-3.17,4.42-7.44,0-6.1-2.59-9.41-5.47-9.41s-4.37,3.12-4.37,7.3Z"/><path class="cls-2" d="M276.08,15.91c-.05-2.02-.67-2.93-3.55-3.07,0-1.01.1-2.02.53-2.83,3.26,0,7.25-.82,8.59-1.58.86.34,1.44,1.1,1.44,2.54v24.87c0,3.22.67,4.08,3.02,4.18.24.77.29,1.92.29,2.98-1.39-.1-4.27-.14-6.91-.14s-5.62.05-6.96.14c0-1.15.1-2.21.34-2.98,2.54-.1,3.22-.96,3.22-4.18V15.91Z"/><path class="cls-2" d="M299.74,35.83c0,3.22.67,4.08,3.02,4.18.24.77.34,1.92.34,2.98-1.44-.1-4.27-.14-6.96-.14s-5.62.05-6.96.14c0-1.15.1-2.21.38-2.98,2.54-.1,3.17-.96,3.17-4.18v-7.63c0-2.21-.48-3.22-3.55-3.36,0-1.01.1-2.02.53-2.83,3.31,0,7.25-.82,8.64-1.58.82.34,1.39,1.1,1.39,2.54v12.86ZM299.74,13.32c0,1.97-1.73,3.46-4.32,3.46-2.4,0-3.98-1.44-3.98-3.41,0-2.35,1.82-3.7,4.18-3.7,2.64,0,4.13,1.34,4.13,3.65Z"/><path class="cls-2" d="M329.16,41.69c-2.35.1-5.09.62-7.25,1.58-1.06-.43-1.54-1.06-1.54-2.69,0-.58.05-1.2.19-1.87-.48,1.1-1.15,2.06-2.02,2.74-1.3,1.06-3.02,1.73-5.38,1.73-4.56,0-6.96-1.92-6.96-5.47,0-6.43,9.12-7.68,13.54-8.31,0-2.93-.24-4.03-1.06-4.99-.67-.77-1.68-1.2-2.69-1.2-2.64,0-3.55,2.74-3.79,5.38-1.58,0-2.93-.05-4.03-.48.14-1.73.14-3.74-.29-5.76,2.64-1.15,6-1.92,9.36-1.92,3.94,0,6.05.72,7.39,2.16,1.39,1.39,2.11,3.55,2.11,7.97v4.32c0,2.93.34,3.7,2.78,3.74.14,1.06.05,2.16-.38,3.07ZM319.76,31.99c-3.75.67-6.53,1.58-6.53,4.46,0,1.92,1.06,2.64,2.26,2.64,1.92,0,4.27-1.82,4.27-5.86v-1.25Z"/><path class="cls-2" d="M360.99,42.98c-1.44-.05-3.94-.14-6.05-.14s-5.42.05-6.86.14c0-1.15.05-2.11.34-2.98,1.78,0,2.78-1.06,2.78-4.51v-5.04c0-4.03-1.34-5.38-3.65-5.38s-4.66,2.69-4.66,7.68v3.07c0,3.26.86,4.18,2.74,4.18.34.91.38,1.78.38,2.98-1.39-.1-4.42-.14-6.62-.14s-5.62.05-7.06.14c0-1.2.14-2.3.38-2.98,2.5,0,3.17-.96,3.17-4.18v-7.1c0-2.74-.34-3.7-3.46-3.89,0-1.01.1-2.02.53-2.83,3.5-.05,7.06-.82,8.54-1.58.86.34,1.39,1.1,1.39,2.64,0,.77-.14,1.78-.48,2.88.38-.82.72-1.63,1.39-2.35,1.3-1.49,3.65-2.93,6.67-2.93,4.03,0,7.68,2.11,7.68,7.82v7.34c0,3.22.67,4.18,2.4,4.18.34.82.43,1.73.43,2.98Z"/><path class="cls-2" d="M216.63,64.74c-1.01.43-2.3.62-3.84.62-.53-4.13-1.97-6.14-5.43-6.14h-1.68v21.94c0,3.89.72,4.66,4.27,4.85.29.67.38,1.92.38,2.98-1.87-.1-4.8-.14-7.97-.14s-7.01.05-8.98.14c0-1.01.19-2.26.43-2.98,3.6-.19,4.51-.96,4.51-4.85v-21.94h-1.1c-4.03,0-5.18,2.16-6.05,6.14-1.34,0-2.78-.1-3.79-.62.58-2.64,1.01-6,1.01-8.5,3.46.14,7.3.14,13.78.14,6,0,10.27-.05,13.68-.14-.05,2.5.24,5.52.77,8.5Z"/><path class="cls-2" d="M236.41,85.86c-2.35,2.26-5.47,3.41-9.31,3.41-8.35,0-11.81-4.94-11.81-11.23,0-7.1,4.51-11.62,11.52-11.62s9.75,5.04,9.79,10.32c-.19.91-.62,1.73-1.2,2.3-2.88,0-8.3.05-12.87.29.53,3.55,2.45,6.29,6.67,6.29,2.06,0,4.46-.86,5.95-2.26.62.38,1.2,1.49,1.25,2.5ZM222.39,76.22h7.68c0-3.98-1.3-6.82-3.7-6.82-2.06,0-3.84,1.68-3.98,6.82Z"/><path class="cls-2" d="M262.95,87.69c-2.35.1-5.09.62-7.25,1.58-1.06-.43-1.54-1.06-1.54-2.69,0-.58.05-1.2.19-1.87-.48,1.1-1.15,2.06-2.02,2.74-1.3,1.06-3.02,1.73-5.38,1.73-4.56,0-6.96-1.92-6.96-5.47,0-6.43,9.12-7.68,13.54-8.3,0-2.93-.24-4.03-1.06-4.99-.67-.77-1.68-1.2-2.69-1.2-2.64,0-3.55,2.74-3.79,5.38-1.58,0-2.93-.05-4.03-.48.14-1.73.14-3.74-.29-5.76,2.64-1.15,6-1.92,9.36-1.92,3.94,0,6.05.72,7.39,2.16,1.39,1.39,2.11,3.55,2.11,7.97v4.32c0,2.93.34,3.7,2.79,3.74.14,1.06.05,2.16-.38,3.07ZM253.54,77.99c-3.74.67-6.53,1.58-6.53,4.46,0,1.92,1.06,2.64,2.26,2.64,1.92,0,4.27-1.82,4.27-5.86v-1.25Z"/><path class="cls-2" d="M309.61,88.98c-1.63-.14-3.84-.14-6.05-.14s-5.18.05-6.87.14c0-1.25.1-2.11.34-2.98,2.02-.14,2.79-1.06,2.79-5.23v-4.42c0-4.13-1.34-5.28-3.36-5.28-2.64,0-4.75,2.59-4.75,7.68v2.88c0,3.31.67,4.22,2.83,4.37.29.72.38,1.82.38,2.98-1.54-.14-4.22-.14-6.58-.14s-5.04,0-6.77.14c0-1.15.14-2.21.38-2.98,2.26-.14,2.83-.86,2.83-5.47v-4.56c0-3.79-1.3-4.99-3.5-4.99-2.45,0-4.61,2.83-4.61,7.68v2.98c0,3.41.58,4.22,2.74,4.37.34.82.38,1.82.38,2.98-1.54-.14-4.85-.14-6.91-.14s-5.33,0-6.77.14c0-1.15.1-2.16.38-2.98,2.59-.14,3.17-.96,3.17-4.18v-6.72c0-3.22-.29-4.08-3.5-4.27,0-.96.14-1.92.58-2.83,2.93,0,6.82-.72,8.45-1.58.77.24,1.39,1.06,1.39,2.54,0,.86-.14,1.63-.48,3.17.67-1.58,1.06-2.26,1.44-2.64,1.34-1.54,3.74-3.02,6.67-3.02s5.47,1.25,6.67,3.84c.29.53.43,1.01.48,1.54.48-1.06,1.01-1.82,1.49-2.35,1.3-1.44,3.5-2.74,6.29-2.74,4.66,0,7.63,2.21,7.63,8.16v5.62c0,4.66.43,5.33,2.45,5.47.29.86.38,1.82.38,2.98Z"/></svg>